<?xml version="1.0" encoding="utf-8"?>
<!-- Generator: Adobe Illustrator 22.1.0, SVG Export Plug-In . SVG Version: 6.00 Build 0)  -->
<svg version="1.1" id="Capa_1" xmlns="http://www.w3.org/2000/svg" xmlns:xlink="http://www.w3.org/1999/xlink" x="0px" y="0px"
	 viewBox="0 0 356.5 356.5" style="enable-background:new 0 0 356.5 356.5;" xml:space="preserve">
<style type="text/css">
	.st0{fill:#FFFFFF;}
</style>
<g>
	<g>
		<path class="st0" d="M294,7.2H62.5C28,7.2,0,35.3,0,69.7v142.8C0,247,28,275,62.5,275l147.4,0l70.6,70.6c2.4,2.4,5.6,3.7,8.8,3.7
			c1.6,0,3.2-0.3,4.8-1c4.7-1.9,7.7-6.5,7.7-11.5v-62.2c30.8-3.9,54.6-30.2,54.6-62V69.7C356.5,35.3,328.4,7.2,294,7.2z
			 M331.5,212.5c0,20.7-16.8,37.5-37.5,37.5h-4.6c-6.9,0-12.5,5.6-12.5,12.5v44.1L224,253.7c-2.3-2.3-5.5-3.7-8.8-3.7H62.5
			C41.8,250,25,233.2,25,212.5V69.7c0-20.7,16.8-37.5,37.5-37.5H294c20.7,0,37.5,16.8,37.5,37.5V212.5z"/>
		<path class="st0" d="M270.2,95.7h-184c-6.9,0-12.5,5.6-12.5,12.5c0,6.9,5.6,12.5,12.5,12.5h184c6.9,0,12.5-5.6,12.5-12.5
			C282.7,101.3,277.1,95.7,270.2,95.7z"/>
		<path class="st0" d="M270.2,165.7h-184c-6.9,0-12.5,5.6-12.5,12.5s5.6,12.5,12.5,12.5h184c6.9,0,12.5-5.6,12.5-12.5
			S277.1,165.7,270.2,165.7z"/>
	</g>
</g>
</svg>
